<mxfile host="app.diagrams.net" modified="2023-10-06T15:53:56.069Z" agent="Mozilla/5.0 (Windows NT 10.0; Win64; x64) AppleWebKit/537.36 (KHTML, like Gecko) Chrome/117.0.0.0 Safari/537.36 Edg/117.0.2045.55" etag="MmmUoE-nVrlFW1y0xlB2" version="22.0.3" type="github">
  <diagram id="C5RBs43oDa-KdzZeNtuy" name="Page-1">
    <mxGraphModel dx="2514" dy="2166" grid="1" gridSize="10" guides="1" tooltips="1" connect="1" arrows="1" fold="1" page="1" pageScale="1" pageWidth="827" pageHeight="1169" math="0" shadow="0">
      <root>
        <mxCell id="WIyWlLk6GJQsqaUBKTNV-0" />
        <mxCell id="WIyWlLk6GJQsqaUBKTNV-1" parent="WIyWlLk6GJQsqaUBKTNV-0" />
        <mxCell id="zkfFHV4jXpPFQw0GAbJ--0" value="Pessoa" style="swimlane;fontStyle=2;align=center;verticalAlign=top;childLayout=stackLayout;horizontal=1;startSize=26;horizontalStack=0;resizeParent=1;resizeLast=0;collapsible=1;marginBottom=0;rounded=0;shadow=0;strokeWidth=1;" parent="WIyWlLk6GJQsqaUBKTNV-1" vertex="1">
          <mxGeometry x="-320" y="210" width="160" height="190" as="geometry">
            <mxRectangle x="230" y="140" width="160" height="26" as="alternateBounds" />
          </mxGeometry>
        </mxCell>
        <mxCell id="zkfFHV4jXpPFQw0GAbJ--1" value="-nome:string&#xa;-sexo:char&#xa;-endereco:string &#xa;-cpf:string&#xa;-telefone: int&#xa;-identidade: int" style="text;align=left;verticalAlign=top;spacingLeft=4;spacingRight=4;overflow=hidden;rotatable=0;points=[[0,0.5],[1,0.5]];portConstraint=eastwest;" parent="zkfFHV4jXpPFQw0GAbJ--0" vertex="1">
          <mxGeometry y="26" width="160" height="94" as="geometry" />
        </mxCell>
        <mxCell id="zkfFHV4jXpPFQw0GAbJ--4" value="" style="line;html=1;strokeWidth=1;align=left;verticalAlign=middle;spacingTop=-1;spacingLeft=3;spacingRight=3;rotatable=0;labelPosition=right;points=[];portConstraint=eastwest;" parent="zkfFHV4jXpPFQw0GAbJ--0" vertex="1">
          <mxGeometry y="120" width="160" height="8" as="geometry" />
        </mxCell>
        <mxCell id="zkfFHV4jXpPFQw0GAbJ--5" value="+Imprimir():void &#xa;+gettters():&#xa;+setter():" style="text;align=left;verticalAlign=top;spacingLeft=4;spacingRight=4;overflow=hidden;rotatable=0;points=[[0,0.5],[1,0.5]];portConstraint=eastwest;" parent="zkfFHV4jXpPFQw0GAbJ--0" vertex="1">
          <mxGeometry y="128" width="160" height="52" as="geometry" />
        </mxCell>
        <mxCell id="zkfFHV4jXpPFQw0GAbJ--6" value="Paciente" style="swimlane;fontStyle=0;align=center;verticalAlign=top;childLayout=stackLayout;horizontal=1;startSize=26;horizontalStack=0;resizeParent=1;resizeLast=0;collapsible=1;marginBottom=0;rounded=0;shadow=0;strokeWidth=1;" parent="WIyWlLk6GJQsqaUBKTNV-1" vertex="1">
          <mxGeometry x="-140" y="470" width="160" height="120" as="geometry">
            <mxRectangle x="130" y="380" width="160" height="26" as="alternateBounds" />
          </mxGeometry>
        </mxCell>
        <mxCell id="zkfFHV4jXpPFQw0GAbJ--7" value="-Relato; string &#xa;-medicacaoConsumida&#xa;Regularmente: string;" style="text;align=left;verticalAlign=top;spacingLeft=4;spacingRight=4;overflow=hidden;rotatable=0;points=[[0,0.5],[1,0.5]];portConstraint=eastwest;" parent="zkfFHV4jXpPFQw0GAbJ--6" vertex="1">
          <mxGeometry y="26" width="160" height="54" as="geometry" />
        </mxCell>
        <mxCell id="zkfFHV4jXpPFQw0GAbJ--9" value="" style="line;html=1;strokeWidth=1;align=left;verticalAlign=middle;spacingTop=-1;spacingLeft=3;spacingRight=3;rotatable=0;labelPosition=right;points=[];portConstraint=eastwest;" parent="zkfFHV4jXpPFQw0GAbJ--6" vertex="1">
          <mxGeometry y="80" width="160" height="8" as="geometry" />
        </mxCell>
        <mxCell id="t5fIi4P55kyKw3je871O-8" value="+Imprimir():void &#xa;" style="text;align=left;verticalAlign=top;spacingLeft=4;spacingRight=4;overflow=hidden;rotatable=0;points=[[0,0.5],[1,0.5]];portConstraint=eastwest;" vertex="1" parent="zkfFHV4jXpPFQw0GAbJ--6">
          <mxGeometry y="88" width="160" height="32" as="geometry" />
        </mxCell>
        <mxCell id="zkfFHV4jXpPFQw0GAbJ--13" value="Consultorio" style="swimlane;fontStyle=0;align=center;verticalAlign=top;childLayout=stackLayout;horizontal=1;startSize=26;horizontalStack=0;resizeParent=1;resizeLast=0;collapsible=1;marginBottom=0;rounded=0;shadow=0;strokeWidth=1;" parent="WIyWlLk6GJQsqaUBKTNV-1" vertex="1">
          <mxGeometry x="-280" y="-230" width="330" height="350" as="geometry">
            <mxRectangle x="340" y="380" width="170" height="26" as="alternateBounds" />
          </mxGeometry>
        </mxCell>
        <mxCell id="zkfFHV4jXpPFQw0GAbJ--14" value="-medicos:lista, &#xa;-paciente:lista, &#xa;-consulta:lista, &#xa;-contPaciente: int, &#xa;-telefone: int, &#xa;-endereco: string, &#xa;-nome: string&#xa;" style="text;align=left;verticalAlign=top;spacingLeft=4;spacingRight=4;overflow=hidden;rotatable=0;points=[[0,0.5],[1,0.5]];portConstraint=eastwest;" parent="zkfFHV4jXpPFQw0GAbJ--13" vertex="1">
          <mxGeometry y="26" width="330" height="114" as="geometry" />
        </mxCell>
        <mxCell id="zkfFHV4jXpPFQw0GAbJ--15" value="" style="line;html=1;strokeWidth=1;align=left;verticalAlign=middle;spacingTop=-1;spacingLeft=3;spacingRight=3;rotatable=0;labelPosition=right;points=[];portConstraint=eastwest;" parent="zkfFHV4jXpPFQw0GAbJ--13" vertex="1">
          <mxGeometry y="140" width="330" height="8" as="geometry" />
        </mxCell>
        <mxCell id="t5fIi4P55kyKw3je871O-12" value="+cadastrarPaciente(Paciente p):void&#xa;+removerPaciente(string cpf):void&#xa;+cadastrarMedico(Medico m):void&#xa;+removerMedico(int crm):void&#xa;+cadastrarConsulta(Consulta C):void&#xa;+removerConsulta(int cpfPaciente, int crmMedico):void&#xa;+imprimirListaPacientes():void&#xa;+imprimirListaMedicos():void&#xa;+imprimirListaCosultas():void&#xa;+imprimirConsulta():void&#xa;+apagarDados():void&#xa;+procurarPaciente():void&#xa;+procurarMedico():void&#xa;" style="text;align=left;verticalAlign=top;spacingLeft=4;spacingRight=4;overflow=hidden;rotatable=0;points=[[0,0.5],[1,0.5]];portConstraint=eastwest;" vertex="1" parent="zkfFHV4jXpPFQw0GAbJ--13">
          <mxGeometry y="148" width="330" height="202" as="geometry" />
        </mxCell>
        <mxCell id="zkfFHV4jXpPFQw0GAbJ--17" value="Consulta&#xa;" style="swimlane;fontStyle=0;align=center;verticalAlign=top;childLayout=stackLayout;horizontal=1;startSize=26;horizontalStack=0;resizeParent=1;resizeLast=0;collapsible=1;marginBottom=0;rounded=0;shadow=0;strokeWidth=1;" parent="WIyWlLk6GJQsqaUBKTNV-1" vertex="1">
          <mxGeometry x="-90" y="210" width="160" height="170" as="geometry">
            <mxRectangle x="550" y="140" width="160" height="26" as="alternateBounds" />
          </mxGeometry>
        </mxCell>
        <mxCell id="zkfFHV4jXpPFQw0GAbJ--18" value="-data: String&#xa;-hora: string&#xa;-cpfPaciente: string, &#xa;-crmMedico: int" style="text;align=left;verticalAlign=top;spacingLeft=4;spacingRight=4;overflow=hidden;rotatable=0;points=[[0,0.5],[1,0.5]];portConstraint=eastwest;" parent="zkfFHV4jXpPFQw0GAbJ--17" vertex="1">
          <mxGeometry y="26" width="160" height="74" as="geometry" />
        </mxCell>
        <mxCell id="zkfFHV4jXpPFQw0GAbJ--23" value="" style="line;html=1;strokeWidth=1;align=left;verticalAlign=middle;spacingTop=-1;spacingLeft=3;spacingRight=3;rotatable=0;labelPosition=right;points=[];portConstraint=eastwest;" parent="zkfFHV4jXpPFQw0GAbJ--17" vertex="1">
          <mxGeometry y="100" width="160" height="8" as="geometry" />
        </mxCell>
        <mxCell id="t5fIi4P55kyKw3je871O-11" value="+Imprimir():void &#xa;+gettters():&#xa;+setter():" style="text;align=left;verticalAlign=top;spacingLeft=4;spacingRight=4;overflow=hidden;rotatable=0;points=[[0,0.5],[1,0.5]];portConstraint=eastwest;" vertex="1" parent="zkfFHV4jXpPFQw0GAbJ--17">
          <mxGeometry y="108" width="160" height="54" as="geometry" />
        </mxCell>
        <mxCell id="t5fIi4P55kyKw3je871O-0" value="Medico" style="swimlane;fontStyle=1;align=center;verticalAlign=top;childLayout=stackLayout;horizontal=1;startSize=20;horizontalStack=0;resizeParent=1;resizeParentMax=0;resizeLast=0;collapsible=1;marginBottom=0;whiteSpace=wrap;html=1;" vertex="1" parent="WIyWlLk6GJQsqaUBKTNV-1">
          <mxGeometry x="-470" y="470" width="160" height="144" as="geometry" />
        </mxCell>
        <mxCell id="t5fIi4P55kyKw3je871O-3" value="-crm: int&amp;nbsp;&lt;br&gt;-especialidade: string" style="text;strokeColor=none;fillColor=none;align=left;verticalAlign=top;spacingLeft=4;spacingRight=4;overflow=hidden;rotatable=0;points=[[0,0.5],[1,0.5]];portConstraint=eastwest;whiteSpace=wrap;html=1;" vertex="1" parent="t5fIi4P55kyKw3je871O-0">
          <mxGeometry y="20" width="160" height="44" as="geometry" />
        </mxCell>
        <mxCell id="t5fIi4P55kyKw3je871O-2" value="" style="line;strokeWidth=1;fillColor=none;align=left;verticalAlign=middle;spacingTop=-1;spacingLeft=3;spacingRight=3;rotatable=0;labelPosition=right;points=[];portConstraint=eastwest;strokeColor=inherit;" vertex="1" parent="t5fIi4P55kyKw3je871O-0">
          <mxGeometry y="64" width="160" height="10" as="geometry" />
        </mxCell>
        <mxCell id="t5fIi4P55kyKw3je871O-5" value="+Imprimir():void &#xa;+toString():string&#xa;+gettters():&#xa;+setter():" style="text;align=left;verticalAlign=top;spacingLeft=4;spacingRight=4;overflow=hidden;rotatable=0;points=[[0,0.5],[1,0.5]];portConstraint=eastwest;" vertex="1" parent="t5fIi4P55kyKw3je871O-0">
          <mxGeometry y="74" width="160" height="70" as="geometry" />
        </mxCell>
        <mxCell id="t5fIi4P55kyKw3je871O-44" style="edgeStyle=orthogonalEdgeStyle;shape=flexArrow;rounded=0;orthogonalLoop=1;jettySize=auto;html=1;exitX=0.5;exitY=0;exitDx=0;exitDy=0;" edge="1" parent="WIyWlLk6GJQsqaUBKTNV-1" source="t5fIi4P55kyKw3je871O-13">
          <mxGeometry relative="1" as="geometry">
            <mxPoint x="130" y="-350" as="targetPoint" />
            <Array as="points">
              <mxPoint x="280" y="-280" />
              <mxPoint x="131" y="-280" />
              <mxPoint x="131" y="-350" />
            </Array>
          </mxGeometry>
        </mxCell>
        <mxCell id="t5fIi4P55kyKw3je871O-13" value="Metodos" style="swimlane;fontStyle=1;align=center;verticalAlign=top;childLayout=stackLayout;horizontal=1;startSize=26;horizontalStack=0;resizeParent=1;resizeParentMax=0;resizeLast=0;collapsible=1;marginBottom=0;whiteSpace=wrap;html=1;" vertex="1" parent="WIyWlLk6GJQsqaUBKTNV-1">
          <mxGeometry x="200" y="-220" width="160" height="310" as="geometry" />
        </mxCell>
        <mxCell id="t5fIi4P55kyKw3je871O-18" value="+Scanner:Scanner" style="text;strokeColor=none;fillColor=none;align=left;verticalAlign=top;spacingLeft=4;spacingRight=4;overflow=hidden;rotatable=0;points=[[0,0.5],[1,0.5]];portConstraint=eastwest;whiteSpace=wrap;html=1;" vertex="1" parent="t5fIi4P55kyKw3je871O-13">
          <mxGeometry y="26" width="160" height="34" as="geometry" />
        </mxCell>
        <mxCell id="t5fIi4P55kyKw3je871O-20" value="" style="line;strokeWidth=1;fillColor=none;align=left;verticalAlign=middle;spacingTop=-1;spacingLeft=3;spacingRight=3;rotatable=0;labelPosition=right;points=[];portConstraint=eastwest;strokeColor=inherit;" vertex="1" parent="t5fIi4P55kyKw3je871O-13">
          <mxGeometry y="60" width="160" height="20" as="geometry" />
        </mxCell>
        <mxCell id="t5fIi4P55kyKw3je871O-19" value="+PedirCpf():string&lt;br&gt;+PedirCpfPaciente():string&lt;br&gt;+PedirCrm():int&lt;br&gt;+PedirCrmMedico():int&lt;br&gt;+PedirData():string&lt;br&gt;+PedirEndereço():string&lt;br&gt;+PedirEspeciaidade():string&lt;br&gt;+PedirHora():string&lt;br&gt;+PedirIdentidade():int&lt;br&gt;+PedirMedicaçao():string&lt;br&gt;+PedirNome();string&lt;br&gt;+PediRelato():string&lt;br&gt;+PedirSexo():char&lt;br&gt;+Pedirtelefone():int&lt;br&gt;+closeScanner:void" style="text;strokeColor=none;fillColor=none;align=left;verticalAlign=top;spacingLeft=4;spacingRight=4;overflow=hidden;rotatable=0;points=[[0,0.5],[1,0.5]];portConstraint=eastwest;whiteSpace=wrap;html=1;" vertex="1" parent="t5fIi4P55kyKw3je871O-13">
          <mxGeometry y="80" width="160" height="230" as="geometry" />
        </mxCell>
        <mxCell id="t5fIi4P55kyKw3je871O-21" value="Main" style="swimlane;fontStyle=1;align=center;verticalAlign=top;childLayout=stackLayout;horizontal=1;startSize=26;horizontalStack=0;resizeParent=1;resizeParentMax=0;resizeLast=0;collapsible=1;marginBottom=0;whiteSpace=wrap;html=1;" vertex="1" parent="WIyWlLk6GJQsqaUBKTNV-1">
          <mxGeometry x="50" y="-430" width="160" height="70" as="geometry" />
        </mxCell>
        <mxCell id="t5fIi4P55kyKw3je871O-22" value="-Consultorio:Consultorio&lt;br&gt;-Metodos;Metodos" style="text;strokeColor=none;fillColor=none;align=left;verticalAlign=top;spacingLeft=4;spacingRight=4;overflow=hidden;rotatable=0;points=[[0,0.5],[1,0.5]];portConstraint=eastwest;whiteSpace=wrap;html=1;" vertex="1" parent="t5fIi4P55kyKw3je871O-21">
          <mxGeometry y="26" width="160" height="44" as="geometry" />
        </mxCell>
        <mxCell id="t5fIi4P55kyKw3je871O-31" value="Extends" style="endArrow=block;endSize=4.794444444444445;endFill=0;html=1;rounded=0;shape=flexArrow;exitX=0.5;exitY=0;exitDx=0;exitDy=0;entryX=0.5;entryY=1;entryDx=0;entryDy=0;width=3.3333333333333335;endWidth=17.037037037037038;" edge="1" parent="WIyWlLk6GJQsqaUBKTNV-1" source="t5fIi4P55kyKw3je871O-0" target="zkfFHV4jXpPFQw0GAbJ--0">
          <mxGeometry width="160" relative="1" as="geometry">
            <mxPoint x="-230" y="560" as="sourcePoint" />
            <mxPoint x="-70" y="560" as="targetPoint" />
            <Array as="points">
              <mxPoint x="-390" y="440" />
              <mxPoint x="-240" y="440" />
            </Array>
          </mxGeometry>
        </mxCell>
        <mxCell id="t5fIi4P55kyKw3je871O-32" value="Extends" style="endArrow=block;endSize=4.783333333333334;endFill=0;html=1;rounded=0;shape=flexArrow;exitX=0.5;exitY=0;exitDx=0;exitDy=0;endWidth=15;width=3.3333333333333335;" edge="1" parent="WIyWlLk6GJQsqaUBKTNV-1" source="zkfFHV4jXpPFQw0GAbJ--6">
          <mxGeometry width="160" relative="1" as="geometry">
            <mxPoint x="-230" y="560" as="sourcePoint" />
            <mxPoint x="-240" y="400" as="targetPoint" />
            <Array as="points">
              <mxPoint x="-60" y="440" />
              <mxPoint x="-240" y="440" />
            </Array>
          </mxGeometry>
        </mxCell>
        <mxCell id="t5fIi4P55kyKw3je871O-36" value="1 *" style="text;html=1;align=center;verticalAlign=middle;resizable=0;points=[];autosize=1;strokeColor=none;fillColor=none;" vertex="1" parent="WIyWlLk6GJQsqaUBKTNV-1">
          <mxGeometry x="-260" y="180" width="40" height="30" as="geometry" />
        </mxCell>
        <mxCell id="t5fIi4P55kyKw3je871O-40" value="" style="line;strokeWidth=2;direction=south;html=1;" vertex="1" parent="WIyWlLk6GJQsqaUBKTNV-1">
          <mxGeometry x="-260" y="120" width="10" height="90" as="geometry" />
        </mxCell>
        <mxCell id="t5fIi4P55kyKw3je871O-41" value="" style="line;strokeWidth=2;direction=south;html=1;" vertex="1" parent="WIyWlLk6GJQsqaUBKTNV-1">
          <mxGeometry x="-15" y="120" width="10" height="90" as="geometry" />
        </mxCell>
        <mxCell id="t5fIi4P55kyKw3je871O-43" style="edgeStyle=orthogonalEdgeStyle;shape=flexArrow;rounded=0;orthogonalLoop=1;jettySize=auto;html=1;exitX=0.5;exitY=0;exitDx=0;exitDy=0;entryX=0.51;entryY=1.165;entryDx=0;entryDy=0;entryPerimeter=0;width=9.615384615384615;endSize=6.973076923076922;endWidth=18.994082840236686;" edge="1" parent="WIyWlLk6GJQsqaUBKTNV-1" source="zkfFHV4jXpPFQw0GAbJ--13" target="t5fIi4P55kyKw3je871O-22">
          <mxGeometry relative="1" as="geometry">
            <Array as="points">
              <mxPoint x="-115" y="-280" />
              <mxPoint x="132" y="-280" />
            </Array>
          </mxGeometry>
        </mxCell>
      </root>
    </mxGraphModel>
  </diagram>
</mxfile>
